<svg width="92" height="395" viewBox="0 0 92 395" fill="none" xmlns="http://www.w3.org/2000/svg">
<path d="M70.1276 27.8443V72.3426L89.8149 80.6367V100.121L63.8819 88.8649L9.15527e-05 61.7447L9.15527e-05 38.2448L16.2251 31.3989L89.6791 7.62939e-06L89.8149 19.6161L70.1276 27.8443ZM54.1062 34.3611L17.0398 50.0935L54.1741 65.8259L54.1741 34.3611H54.1062Z" fill="#FDFDF5"/>
<path d="M89.7152 220.672C92.4308 232.909 92.4308 245.145 90.5299 257.316C88.1537 272.579 79.9389 285.276 62.8303 284.553V265.737C68.6689 265.869 72.7424 262.382 74.3718 257.185C77.4269 247.448 77.6984 231.132 73.7608 222.119C71.7919 217.646 66.7001 215.211 62.1514 217.383C56.5843 220.014 55.4301 231.132 54.5476 238.237C53.665 245.343 52.7824 251.921 51.4925 258.829C49.0484 271.921 42.7345 282.842 28.2737 283.171C13.8128 283.5 5.66591 273.697 2.6787 260.737C-0.308515 247.777 -0.172732 234.882 2.88237 222.185C5.93747 209.488 14.4239 199.356 28.3416 199.949L28.3416 218.435C17.2753 219.356 15.8496 232.185 15.8496 242.251C15.8496 249.158 16.5964 258.763 21.7561 262.579C23.8607 264.092 26.3727 264.553 28.9526 263.763C34.4518 262.119 35.538 253.895 36.4885 247.645L40.2904 222.58C41.1051 217.383 43.0061 212.58 45.518 208.106C49.3878 201.33 56.0412 197.778 63.9165 197.778C70.2304 197.778 76.4085 199.291 80.9572 203.699C85.5059 208.106 88.2895 214.027 89.7152 220.672Z" fill="#FDFDF5"/>
<path d="M90.3276 313.904L70.5725 322.319V366.693L90.2598 374.976V394.566L0.512878 356.306L0.512878 332.64L42.3314 314.693L90.2598 294.445L90.2598 313.904H90.3276ZM54.619 328.761L17.3489 344.539L54.619 360.185L54.619 328.761Z" fill="#FDFDF5"/>
<path d="M60.1058 162.226C70.2025 162.029 80.2314 161.832 90.3281 161.635V181.147C83.1452 181.541 54.6848 183.052 41.0644 182.264C39.9802 182.264 38.0829 182.067 35.7789 181.804C26.4276 180.753 21.3454 180.162 16.1954 176.942C9.75795 172.869 6.5731 167.153 4.20139 162.555C1.69416 157.627 0.542195 153.225 9.15527e-05 150.072C11.181 154.934 20.1934 158.218 25.3434 159.795C29.2059 160.978 32.052 161.503 34.5592 161.766C36.6598 162.029 38.5572 162.095 40.319 162.095C37.744 157.43 35.2368 153.291 33.0684 149.809C31.5099 147.313 23.8526 135.553 10.7066 120.968C8.13164 118.077 4.54021 114.201 9.15527e-05 109.799C3.456 109.405 8.87704 109.142 15.3145 110.653C17.0764 111.047 24.1915 112.821 31.0355 117.814C43.9782 127.209 47.2309 141.531 47.9762 145.407L51.7032 134.37C53.2618 131.02 59.0216 120.114 72.0999 114.332C79.5538 111.047 86.3301 110.785 90.3281 110.916V131.676C88.8373 131.676 86.8722 131.874 84.636 132.399C82.5353 132.859 79.1472 133.91 75.6235 136.078C71.0156 138.969 68.3729 142.451 66.8821 144.685C63.3584 149.94 61.3255 155.853 60.1058 162.292V162.226Z" fill="#FDFDF5"/>
</svg>
